<svg xmlns="http://www.w3.org/2000/svg" viewBox="0 0 1280 640" width="1280" height="640" role="img"
           aria-label="Plumbline banner, dark variant.">
        <defs>
          <pattern id="gd" width="32" height="32" patternUnits="userSpaceOnUse">
            <path d="M32 0H0v32" fill="none" stroke="#222A2F" stroke-width="1"/>
          </pattern>
          <linearGradient id="bd" x1="0" y1="0" x2="1" y2="0">
            <stop offset="0" stop-color="#8A6220"/><stop offset=".38" stop-color="#E8C574"/>
            <stop offset=".62" stop-color="#C99A3E"/><stop offset="1" stop-color="#7A551B"/>
          </linearGradient>
          <marker id="ad" viewBox="0 0 10 10" refX="5" refY="5" markerWidth="6"
                  markerHeight="6" orient="auto">
            <path d="M0 1 L9 5 L0 9 z" fill="#8A968F"/>
          </marker>
        </defs>

        <rect width="1280" height="640" fill="#12171A"/>
        <rect width="1280" height="640" fill="url(#gd)"/>
        <rect x="24.5" y="24.5" width="1231" height="591" fill="none"
              stroke="#2A3237" stroke-width="1"/>

        <g fill="none" stroke="#E8EAE3" stroke-width="1.5" opacity=".45">
          <path d="M24 56V24h32"/><path d="M1224 24h32v32"/>
          <path d="M24 584v32h32"/><path d="M1256 584v32h-32"/>
        </g>

        <text x="96" y="150" font-family="'IBM Plex Mono',monospace" font-size="13"
              letter-spacing="4.5" fill="#C99A3E">BYTEBELL</text>
        <text x="94" y="258" font-family="Archivo,sans-serif" font-size="108"
              font-weight="800" letter-spacing="-3.2" fill="#E8EAE3">PLUMBLINE</text>
        <path d="M96 286H690" stroke="#C99A3E" stroke-width="2.5"/>
        <text x="96" y="332" font-family="Archivo,sans-serif" font-size="28"
              font-weight="500" fill="#E8EAE3">Local-first code intelligence</text>
        <text x="96" y="370" font-family="'IBM Plex Mono',monospace" font-size="14"
              fill="#8A968F">every file analyzed &#8594; knowledge graph &#8594; served over MCP</text>
        <text x="96" y="394" font-family="'IBM Plex Mono',monospace" font-size="14"
              fill="#8A968F">nothing leaves 127.0.0.1</text>

        <g stroke="#2A3237" stroke-width="1">
          <path d="M96 470h336M96 501.5h336M96 533h336M96 564.5h336M96 596h336"/>
          <path d="M96 470v126M232 470v126M432 470v126"/>
        </g>
        <g font-family="'IBM Plex Mono',monospace" font-size="11" letter-spacing="1.4">
          <text x="108" y="491" fill="#8A968F">PROJECT</text>
          <text x="244" y="491" fill="#E8EAE3">PLUMBLINE</text>
          <text x="108" y="522.5" fill="#8A968F">GRAPH</text>
          <text x="244" y="522.5" fill="#E8EAE3">NEO4J + MONGO</text>
          <text x="108" y="554" fill="#8A968F">SERVES</text>
          <text x="244" y="554" fill="#E8EAE3">MCP / STDIO + HTTP</text>
          <text x="108" y="585.5" fill="#8A968F">BIND</text>
          <text x="244" y="585.5" fill="#E8EAE3">127.0.0.1 LOCAL ONLY</text>
        </g>

        <path d="M770 48V414" stroke="#8A968F" stroke-width="1"
              marker-start="url(#ad)" marker-end="url(#ad)" opacity=".8"/>
        <text x="758" y="231" font-family="'IBM Plex Mono',monospace" font-size="11"
              letter-spacing="2.6" fill="#8A968F" text-anchor="middle"
              transform="rotate(-90 758 231)">TRUE VERTICAL</text>

        <g opacity=".34">
          <path d="M1096 418C1140 440 1120 500 1152 466M1112 528C1150 520 1160 552 1168 566M1064 590C1090 560 1104 544 1112 528"
                fill="none" stroke="#8A968F" stroke-width="1" stroke-dasharray="3 4"/>
          <g fill="#8A968F">
            <circle cx="1096" cy="418" r="3.5"/><circle cx="1152" cy="466" r="3.5"/>
            <circle cx="1112" cy="528" r="3.5"/><circle cx="1168" cy="566" r="3.5"/>
            <circle cx="1064" cy="590" r="3.5"/>
          </g>
        </g>

        <path d="M880 44V266" stroke="#8A968F" stroke-width="1.25"/>
        <rect x="873" y="264" width="14" height="10" fill="#C99A3E"/>
        <path d="M880 274 L892 294 C900 314 900 342 894 362 L880 414 L866 362
                 C860 342 860 314 868 294 Z" fill="url(#bd)"/>
        <path d="M880 274 L868 294 C860 314 860 342 866 362 L880 414 Z"
              fill="#E8C574" opacity=".26"/>

        <path d="M880 414V552" stroke="#C99A3E" stroke-width="1.25" opacity=".7"/>
        <g stroke="#8A968F" stroke-width="1" opacity=".55">
          <path d="M880 432H812M880 492H812M880 552H812"/>
        </g>
        <g fill="#C99A3E">
          <circle cx="880" cy="432" r="5"/><circle cx="880" cy="492" r="5"/>
          <circle cx="880" cy="552" r="5"/>
        </g>
        <g fill="#8A968F">
          <circle cx="812" cy="432" r="3.5"/><circle cx="812" cy="492" r="3.5"/>
          <circle cx="812" cy="552" r="3.5"/>
        </g>
        <g font-family="'IBM Plex Mono',monospace" font-size="12.5" fill="#E8EAE3">
          <text x="906" y="436">smart_search</text>
          <text x="906" y="496">keyword_lookup</text>
          <text x="906" y="556">retrieve_file</text>
        </g>
      </svg>
